<mxfile host="65bd71144e">
    <diagram id="AVM9UOoOy270UMGi0d67" name="Page-1">
        <mxGraphModel dx="2179" dy="1189" grid="1" gridSize="10" guides="1" tooltips="1" connect="1" arrows="1" fold="1" page="1" pageScale="1" pageWidth="850" pageHeight="1100" math="0" shadow="0">
            <root>
                <mxCell id="0"/>
                <mxCell id="1" parent="0"/>
                <mxCell id="2" value="&lt;font style=&quot;font-size: 25px;&quot;&gt;Server&lt;/font&gt;" style="rounded=1;whiteSpace=wrap;html=1;fillColor=#6d8764;fontColor=#ffffff;strokeColor=#3A5431;" vertex="1" parent="1">
                    <mxGeometry x="-445" y="-890" width="120" height="60" as="geometry"/>
                </mxCell>
                <mxCell id="3" value="TCP Client" style="shape=actor;whiteSpace=wrap;html=1;fontSize=25;fillColor=#fa6800;fontColor=#FFFFFF;strokeColor=#C73500;" vertex="1" parent="1">
                    <mxGeometry x="-545" y="-730" width="100" height="100" as="geometry"/>
                </mxCell>
                <mxCell id="4" value="TCP Client" style="shape=actor;whiteSpace=wrap;html=1;fontSize=25;fillColor=#fa6800;fontColor=#FFFFFF;strokeColor=#C73500;" vertex="1" parent="1">
                    <mxGeometry x="-405" y="-730" width="100" height="100" as="geometry"/>
                </mxCell>
                <mxCell id="5" value="UDP Client" style="shape=actor;whiteSpace=wrap;html=1;fontSize=25;fillColor=#3333FF;strokeColor=#6c8ebf;gradientColor=none;" vertex="1" parent="1">
                    <mxGeometry x="-235" y="-730" width="100" height="100" as="geometry"/>
                </mxCell>
                <mxCell id="6" value="UDP Client" style="shape=actor;whiteSpace=wrap;html=1;fontSize=25;fillColor=#3333FF;strokeColor=#6c8ebf;gradientColor=none;" vertex="1" parent="1">
                    <mxGeometry x="-95" y="-730" width="100" height="100" as="geometry"/>
                </mxCell>
                <mxCell id="9" value="" style="endArrow=classic;startArrow=classic;html=1;strokeWidth=5;fontSize=25;fontColor=#FFFFFF;entryX=0.5;entryY=1;entryDx=0;entryDy=0;exitX=0.5;exitY=0;exitDx=0;exitDy=0;" edge="1" parent="1" source="3" target="2">
                    <mxGeometry width="50" height="50" relative="1" as="geometry">
                        <mxPoint x="-245" y="-750" as="sourcePoint"/>
                        <mxPoint x="-195" y="-800" as="targetPoint"/>
                    </mxGeometry>
                </mxCell>
                <mxCell id="10" value="" style="endArrow=classic;startArrow=classic;html=1;strokeWidth=5;fontSize=25;fontColor=#FFFFFF;entryX=0.5;entryY=1;entryDx=0;entryDy=0;exitX=0.5;exitY=0;exitDx=0;exitDy=0;" edge="1" parent="1" source="4" target="2">
                    <mxGeometry width="50" height="50" relative="1" as="geometry">
                        <mxPoint x="-485" y="-720" as="sourcePoint"/>
                        <mxPoint x="-375" y="-820" as="targetPoint"/>
                    </mxGeometry>
                </mxCell>
                <mxCell id="11" value="" style="endArrow=classic;startArrow=classic;html=1;strokeWidth=5;fontSize=25;fontColor=#FFFFFF;entryX=0.5;entryY=1;entryDx=0;entryDy=0;exitX=0.5;exitY=0;exitDx=0;exitDy=0;" edge="1" parent="1" source="5" target="2">
                    <mxGeometry width="50" height="50" relative="1" as="geometry">
                        <mxPoint x="-345" y="-720" as="sourcePoint"/>
                        <mxPoint x="-375" y="-820" as="targetPoint"/>
                    </mxGeometry>
                </mxCell>
                <mxCell id="12" value="" style="endArrow=classic;startArrow=classic;html=1;strokeWidth=5;fontSize=25;fontColor=#FFFFFF;entryX=0.5;entryY=1;entryDx=0;entryDy=0;exitX=0.5;exitY=0;exitDx=0;exitDy=0;" edge="1" parent="1" source="6" target="2">
                    <mxGeometry width="50" height="50" relative="1" as="geometry">
                        <mxPoint x="-175" y="-720" as="sourcePoint"/>
                        <mxPoint x="-375" y="-820" as="targetPoint"/>
                    </mxGeometry>
                </mxCell>
                <mxCell id="13" value="&lt;h1&gt;Connection structure&lt;/h1&gt;" style="text;html=1;strokeColor=none;fillColor=none;spacing=5;spacingTop=-20;whiteSpace=wrap;overflow=hidden;rounded=0;fontSize=25;fontColor=#FFFFFF;" vertex="1" parent="1">
                    <mxGeometry x="-637.5" y="-1010" width="565" height="120" as="geometry"/>
                </mxCell>
                <mxCell id="15" value="&lt;font style=&quot;font-size: 12px;&quot;&gt;can send:&lt;br&gt;&quot;subscribe&quot; and &quot;unsubscribe&quot; messages&lt;/font&gt;" style="whiteSpace=wrap;html=1;rounded=1;arcSize=50;align=center;verticalAlign=middle;strokeWidth=1;autosize=1;spacing=4;treeFolding=1;treeMoving=1;newEdgeStyle={&quot;edgeStyle&quot;:&quot;entityRelationEdgeStyle&quot;,&quot;startArrow&quot;:&quot;none&quot;,&quot;endArrow&quot;:&quot;none&quot;,&quot;segment&quot;:10,&quot;curved&quot;:1,&quot;sourcePerimeterSpacing&quot;:0,&quot;targetPerimeterSpacing&quot;:0};fontSize=25;fillColor=#4C3A54;strokeColor=#4C3A54;" vertex="1" parent="1">
                    <mxGeometry x="-750" y="-875" width="260" height="80" as="geometry"/>
                </mxCell>
                <mxCell id="16" value="" style="edgeStyle=orthogonalEdgeStyle;startArrow=none;endArrow=none;segment=10;curved=1;sourcePerimeterSpacing=0;targetPerimeterSpacing=0;strokeWidth=5;fontSize=25;fontColor=#FFFFFF;fillColor=#e1d5e7;strokeColor=#9673a6;entryX=1;entryY=0.5;entryDx=0;entryDy=0;" edge="1" target="15" parent="1">
                    <mxGeometry relative="1" as="geometry">
                        <mxPoint x="-455" y="-770" as="sourcePoint"/>
                    </mxGeometry>
                </mxCell>
                <mxCell id="20" value="&lt;h1 style=&quot;font-size: 28px;&quot;&gt;&lt;font style=&quot;font-size: 28px;&quot;&gt;The app should include:&lt;/font&gt;&lt;/h1&gt;&lt;p style=&quot;font-size: 28px;&quot;&gt;&lt;/p&gt;&lt;ul style=&quot;&quot;&gt;&lt;li style=&quot;&quot;&gt;&lt;font style=&quot;font-size: 20px;&quot;&gt;SF (store-and-forward) functionality;&lt;/font&gt;&lt;/li&gt;&lt;ul&gt;&lt;li style=&quot;&quot;&gt;&lt;font style=&quot;font-size: 20px;&quot;&gt;when TCP clients are disconnected;&lt;/font&gt;&lt;/li&gt;&lt;/ul&gt;&lt;/ul&gt;&lt;p&gt;&lt;/p&gt;" style="text;html=1;strokeColor=none;fillColor=none;spacing=5;spacingTop=-20;whiteSpace=wrap;overflow=hidden;rounded=0;fontSize=12;fontColor=#FFFFFF;" vertex="1" parent="1">
                    <mxGeometry x="-770" y="-570" width="400" height="160" as="geometry"/>
                </mxCell>
                <mxCell id="21" value="UDP messages format" style="text;html=1;strokeColor=none;fillColor=none;align=center;verticalAlign=middle;whiteSpace=wrap;rounded=0;fontSize=28;fontColor=#FFFFFF;" vertex="1" parent="1">
                    <mxGeometry x="-750" y="-320" width="310" height="30" as="geometry"/>
                </mxCell>
                <mxCell id="22" value="50 bytes" style="rounded=0;whiteSpace=wrap;html=1;strokeColor=#001DBC;fontSize=28;fontColor=#ffffff;fillColor=#0050ef;" vertex="1" parent="1">
                    <mxGeometry x="-720" y="-240" width="200" height="40" as="geometry"/>
                </mxCell>
                <mxCell id="25" value="&lt;font style=&quot;font-size: 10px;&quot;&gt;1 byte&lt;/font&gt;" style="rounded=0;whiteSpace=wrap;html=1;strokeColor=#2D7600;fontSize=28;fontColor=#ffffff;fillColor=#60a917;" vertex="1" parent="1">
                    <mxGeometry x="-520" y="-240" width="30" height="40" as="geometry"/>
                </mxCell>
                <mxCell id="26" value="1500 bytes" style="rounded=0;whiteSpace=wrap;html=1;strokeColor=#A50040;fontSize=28;fontColor=#ffffff;fillColor=#d80073;" vertex="1" parent="1">
                    <mxGeometry x="-490" y="-240" width="490" height="40" as="geometry"/>
                </mxCell>
            </root>
        </mxGraphModel>
    </diagram>
</mxfile>